<?xml version="1.0" encoding="utf-8"?>
<!-- Generator: Adobe Illustrator 22.0.1, SVG Export Plug-In . SVG Version: 6.00 Build 0)  -->
<svg version="1.1" id="Layer_1" xmlns="http://www.w3.org/2000/svg" xmlns:xlink="http://www.w3.org/1999/xlink" x="0px" y="0px"
	 viewBox="0 0 32 32" style="enable-background:new 0 0 32 32;" xml:space="preserve">
<style type="text/css">
	.st0{fill:#FFFFFF;}
</style>
<g>
	<g>
		<path class="st0" d="M18.7,9.9h-5.5c-1.9,0-3.4,1.5-3.4,3.4v5.5c0,1.9,1.5,3.4,3.4,3.4h5.5c1.9,0,3.4-1.5,3.4-3.4v-5.5
			C22.1,11.4,20.6,9.9,18.7,9.9L18.7,9.9z M21,18.7c0,1.3-1,2.3-2.3,2.3h-5.5C12,21,11,20,11,18.7v-5.5c0-1.3,1-2.3,2.3-2.3h5.5
			c1.3,0,2.3,1,2.3,2.3V18.7z M21,18.7"/>
		<path class="st0" d="M16,12.9c-1.7,0-3.1,1.4-3.1,3.1c0,1.7,1.4,3.1,3.1,3.1c1.7,0,3.1-1.4,3.1-3.1C19.1,14.3,17.7,12.9,16,12.9
			L16,12.9z M16,18.1c-1.1,0-2.1-0.9-2.1-2.1c0-1.1,0.9-2.1,2.1-2.1s2.1,0.9,2.1,2.1C18.1,17.1,17.1,18.1,16,18.1L16,18.1z M16,18.1
			"/>
		<path class="st0" d="M19.3,11.9c-0.2,0-0.4,0.1-0.6,0.2c-0.1,0.1-0.2,0.4-0.2,0.6c0,0.2,0.1,0.4,0.2,0.6c0.1,0.1,0.4,0.2,0.6,0.2
			c0.2,0,0.4-0.1,0.6-0.2c0.1-0.1,0.2-0.4,0.2-0.6c0-0.2-0.1-0.4-0.2-0.6C19.7,12,19.5,11.9,19.3,11.9L19.3,11.9z M19.3,11.9"/>
	</g>
</g>
</svg>
