<?xml version="1.0" encoding="UTF-8"?>
<svg width="24px" height="18px" viewBox="0 0 24 18" version="1.1" xmlns="http://www.w3.org/2000/svg" xmlns:xlink="http://www.w3.org/1999/xlink">
    <!-- Generator: Sketch 49.3 (51167) - http://www.bohemiancoding.com/sketch -->
    <title>Icon_arrow</title>
    <desc>Created with Sketch.</desc>
    <defs></defs>
    <g id="API-Doc" stroke="none" stroke-width="1" fill="none" fill-rule="evenodd">
        <g id="API-Documentation-Article-Concept-5-Deprecated-Table-Subheader" transform="translate(-372.000000, -1913.000000)" fill="#00A1FF">
            <g id="Stacked-Group-Copy" transform="translate(372.000000, 1910.000000)">
                <g id="Icon_arrow" transform="translate(12.000000, 12.000000) scale(-1, 1) translate(-12.000000, -12.000000) ">
                    <path d="M23.9254274,12.3824402 C23.9386521,12.3494399 23.946489,12.3149397 23.956285,12.2814395 C23.9646117,12.2529393 23.9753874,12.2254391 23.981265,12.1959389 C24.006245,12.066438 24.006245,11.933437 23.981265,11.8039361 C23.9753874,11.7744359 23.9646117,11.7469357 23.956285,11.7184355 C23.946489,11.6844353 23.9386521,11.6504351 23.9254274,11.6174348 C23.9117129,11.5839346 23.8931004,11.5534344 23.8759573,11.5219342 C23.8622428,11.496434 23.8514671,11.4699338 23.8353036,11.4454336 C23.799548,11.3904333 23.7584045,11.3389329 23.7128527,11.2924326 L15.8764879,3.29287703 C15.4939514,2.90237432 14.8738603,2.90237432 14.4913238,3.29287703 C14.1087874,3.68337975 14.1087874,4.31638414 14.4913238,4.70688685 L20.6559896,10.9999306 L0.979606831,10.9999306 C0.43886386,10.9999306 0,11.4479337 0,11.9999375 C0,12.5519413 0.43886386,12.9999444 0.979606831,12.9999444 L20.6559896,12.9999444 L14.4913238,19.2929881 C14.1087874,19.6834909 14.1087874,20.3164953 14.4913238,20.706998 C14.682837,20.9024993 14.9331265,21 15.1839059,21 C15.4346852,21 15.6849748,20.9024993 15.8764879,20.706998 L23.7128527,12.7074424 C23.7584045,12.6609421 23.799548,12.6094417 23.8353036,12.5544414 C23.8514671,12.5299412 23.8622428,12.503441 23.8759573,12.4779408 C23.8931004,12.4464406 23.9117129,12.4159404 23.9254274,12.3824402" id="Fill-12"></path>
                </g>
            </g>
        </g>
    </g>
</svg>