<?xml version="1.0" encoding="utf-8"?>
<!-- Generator: Adobe Illustrator 22.0.1, SVG Export Plug-In . SVG Version: 6.00 Build 0)  -->
<svg version="1.1" id="Layer_1" xmlns="http://www.w3.org/2000/svg" xmlns:xlink="http://www.w3.org/1999/xlink" x="0px" y="0px"
	 viewBox="0 0 32 32" style="enable-background:new 0 0 32 32;" xml:space="preserve">
<style type="text/css">
	.st0{fill:#FFFFFF;}
</style>
<g>
	<g>
		<path class="st0" d="M22.2,17.3v4.6h-2.6v-4.3c0-1.1-0.4-1.8-1.3-1.8c-0.7,0-1.2,0.5-1.4,1c-0.1,0.2-0.1,0.4-0.1,0.6v4.4h-2.6
			c0,0,0-7.2,0-8h2.6v1.1c0,0,0,0,0,0h0v0c0.4-0.5,1-1.3,2.4-1.3C20.9,13.8,22.2,14.9,22.2,17.3L22.2,17.3z M11.3,10.1
			c-0.9,0-1.5,0.6-1.5,1.4c0,0.8,0.6,1.4,1.5,1.4h0c0.9,0,1.5-0.6,1.5-1.4C12.8,10.7,12.2,10.1,11.3,10.1L11.3,10.1z M10,21.9h2.6
			v-8H10V21.9z M10,21.9"/>
	</g>
</g>
</svg>
